<svg width="54" height="96" viewBox="0 0 54 96" fill="none" xmlns="http://www.w3.org/2000/svg">
<path d="M0 64H10.8C10.8 69.76 18.198 74.6667 27 74.6667C35.802 74.6667 43.2 69.76 43.2 64C43.2 58.1333 37.584 56 25.704 53.1733C14.256 50.3467 0 46.8267 0 32C0 22.4533 7.938 14.3467 18.9 11.6267V0H35.1V11.6267C46.062 14.3467 54 22.4533 54 32H43.2C43.2 26.24 35.802 21.3333 27 21.3333C18.198 21.3333 10.8 26.24 10.8 32C10.8 37.8667 16.416 40 28.296 42.8267C39.744 45.6533 54 49.1733 54 64C54 73.5467 46.062 81.6533 35.1 84.3733V96H18.9V84.3733C7.938 81.6533 0 73.5467 0 64Z" fill="#593C1C"/>
</svg>
